<svg width="400" height="84" viewBox="0 0 400 84" fill="none" xmlns="http://www.w3.org/2000/svg">
<g clip-path="url(#clip0_381_148)">
<path d="M41.8436 81.2053C63.8349 81.2053 81.6625 63.3778 81.6625 41.3864C81.6625 19.395 63.8349 1.5675 41.8436 1.5675C19.8522 1.5675 2.02467 19.395 2.02467 41.3864C2.02467 63.3778 19.8522 81.2053 41.8436 81.2053Z" fill="white"/>
<path d="M41.6041 0C18.6576 0 0 18.6794 0 41.6041C0 64.5288 18.6576 83.2082 41.6041 83.2082C64.5506 83.2082 83.2082 64.5288 83.2082 41.6041C83.2082 18.6794 64.5506 0 41.6041 0ZM41.6041 79.6378C20.6605 79.6378 3.59219 62.5695 3.59219 41.6041C3.59219 20.6388 20.6605 3.59219 41.6041 3.59219C62.5477 3.59219 79.616 20.6388 79.616 41.6041C79.616 62.5695 62.5695 79.616 41.6041 79.616V79.6378Z" fill="url(#paint0_linear_381_148)"/>
<path d="M50.0948 32.1338L44.0207 38.2079L44.086 38.2514L51.6623 45.8277L57.7363 39.7754L50.0948 32.1338Z" fill="url(#paint1_linear_381_148)"/>
<path d="M69.4708 51.5099L59.3038 41.3429L53.2298 47.417L61.7422 55.9294L56.343 61.3285L42.6709 47.6564C42.279 47.2646 41.6259 47.2646 41.234 47.6564L36.5968 52.2936C36.2049 52.6855 36.2049 53.3386 36.5968 53.7305L51.9453 69.079C54.3618 71.4955 58.3459 71.4955 60.7625 69.079L69.4708 60.3706C71.8874 57.9541 71.8874 53.97 69.4708 51.5534V51.5099Z" fill="url(#paint2_linear_381_148)"/>
<path d="M69.2531 22.7288L60.5448 14.0205C58.1282 11.6039 54.1441 11.6039 51.7276 14.0205L36.6404 29.1077C36.2485 29.4995 36.2485 30.1527 36.6404 30.5445L41.2776 35.1817C41.6694 35.5736 42.3226 35.5736 42.7144 35.1817L56.1471 21.7491L61.5462 27.1483L45.414 43.2805L26.9088 61.7857L21.5096 56.3866L43.324 34.5722C43.7159 34.1803 43.7159 33.5272 43.324 33.1353L38.6868 28.4981C38.2949 28.1062 37.6418 28.1062 37.2499 28.4981L13.7592 51.9888C11.3426 54.4054 11.3426 58.3895 13.7592 60.806L22.4675 69.5144C24.8841 71.931 28.8682 71.931 31.2847 69.5144L52.6637 48.1354L69.2313 31.5678C71.6479 29.1512 71.6479 25.1671 69.2313 22.7506L69.2531 22.7288Z" fill="url(#paint3_linear_381_148)"/>
<path d="M52.9249 34.964L31.9814 14.0205C29.5648 11.6039 25.5807 11.6039 23.1642 14.0205L14.4558 22.7288C12.0393 25.1454 12.0175 29.1294 14.4558 31.546L41.8436 58.9337L47.9177 52.8597L22.1845 27.1483L27.5837 21.7491L46.8509 41.0163" fill="url(#paint4_linear_381_148)"/>
<path d="M105.915 56.0818C105.001 55.6028 103.956 55.3633 102.78 55.3851H99.4493L96.5538 55.4069V72.1922H99.8412V66.6407H103.063C104.195 66.6407 105.197 66.4012 106.068 65.9004C106.938 65.4215 107.613 64.7466 108.114 63.8975C108.615 63.0485 108.854 62.0905 108.854 61.002C108.854 59.9135 108.593 58.9338 108.092 58.0847C107.592 57.2574 106.873 56.5825 105.959 56.1036L105.915 56.0818ZM104.783 62.8743C104.304 63.3533 103.716 63.5927 102.976 63.5927H99.8412V58.3895H102.715C103.259 58.3895 103.738 58.4766 104.152 58.6943C104.565 58.912 104.892 59.2168 105.131 59.6087C105.371 60.0005 105.502 60.4577 105.502 60.9585C105.502 61.7422 105.262 62.3736 104.805 62.8525L104.783 62.8743Z" fill="white"/>
<path d="M113.666 62.4389V60.1965H110.509V72.1922H113.666V65.8787C113.666 65.2473 113.862 64.7466 114.275 64.3329C114.689 63.9193 115.19 63.6363 115.843 63.4621C116.496 63.2879 117.171 63.2009 117.911 63.2009V60.1312C117.04 60.1312 116.213 60.3489 115.429 60.7625C114.711 61.1326 114.145 61.6987 113.666 62.4171V62.4389Z" fill="white"/>
<path d="M128.448 60.719C127.512 60.1747 126.423 59.9135 125.182 59.9135C123.942 59.9135 122.897 60.1747 121.939 60.719C121.002 61.2632 120.262 61.9817 119.74 62.9396C119.217 63.8757 118.956 64.9643 118.956 66.2052C118.956 67.4462 119.217 68.5347 119.761 69.4709C120.306 70.407 121.046 71.1472 121.982 71.6915C122.94 72.2358 124.007 72.497 125.226 72.497C126.445 72.497 127.512 72.2358 128.448 71.6915C129.384 71.1472 130.124 70.407 130.647 69.4709C131.169 68.5347 131.431 67.4462 131.431 66.2052C131.431 64.9643 131.169 63.8975 130.647 62.9396C130.124 62.0035 129.384 61.2632 128.448 60.719ZM127.838 67.9251C127.599 68.4259 127.251 68.8177 126.793 69.1008C126.336 69.3838 125.836 69.5362 125.226 69.5362C124.616 69.5362 124.116 69.3838 123.637 69.1008C123.18 68.8177 122.809 68.4259 122.548 67.9251C122.287 67.4244 122.156 66.8366 122.156 66.1835C122.156 65.5303 122.287 64.9425 122.548 64.4418C122.809 63.9411 123.158 63.5492 123.615 63.2444C124.072 62.9614 124.595 62.809 125.161 62.809C125.727 62.809 126.271 62.9614 126.728 63.2444C127.185 63.5274 127.534 63.9193 127.795 64.4418C128.056 64.9425 128.187 65.5303 128.187 66.1835C128.187 66.8366 128.056 67.4244 127.817 67.9251H127.838Z" fill="white"/>
<path d="M138.289 68.7089L135.066 60.1965H131.801L136.699 72.1922H139.878L144.798 60.1965H141.532L138.289 68.7089Z" fill="white"/>
<path d="M148.107 54.6013C147.628 54.6013 147.193 54.7755 146.844 55.1456C146.474 55.5157 146.3 55.9294 146.3 56.4301C146.3 56.9308 146.474 57.3445 146.844 57.7146C147.215 58.0629 147.628 58.2589 148.107 58.2589C148.586 58.2589 149.022 58.0847 149.392 57.7146C149.762 57.3445 149.936 56.9308 149.936 56.4301C149.936 55.9294 149.762 55.5157 149.392 55.1456C149.022 54.7973 148.608 54.6013 148.107 54.6013Z" fill="white"/>
<path d="M149.675 60.1965H146.518V72.1922H149.675V60.1965Z" fill="white"/>
<path d="M160.974 61.8293C160.669 61.3721 160.342 60.9802 159.929 60.6754C159.232 60.1747 158.383 59.9134 157.382 59.9134C156.271 59.9134 155.313 60.1747 154.508 60.6754C153.702 61.1979 153.071 61.9163 152.614 62.8525C152.157 63.7886 151.939 64.899 151.939 66.2052C151.939 67.5115 152.157 68.6 152.614 69.5361C153.071 70.4723 153.681 71.2125 154.508 71.7132C155.313 72.2357 156.271 72.4752 157.382 72.4752C158.383 72.4752 159.232 72.214 159.929 71.7132C160.364 71.3867 160.712 70.973 161.017 70.4941L161.148 72.1922H164.152V55.4069H160.996V61.8293H160.974ZM159.646 69.1443C159.232 69.4273 158.731 69.5797 158.187 69.5797C157.621 69.5797 157.099 69.4273 156.663 69.1443C156.228 68.8613 155.879 68.4476 155.618 67.9469C155.357 67.4461 155.226 66.8583 155.226 66.2052C155.226 65.5521 155.357 64.9643 155.618 64.4635C155.879 63.941 156.228 63.5492 156.641 63.2661C157.055 62.9831 157.577 62.8525 158.144 62.8525C158.71 62.8525 159.189 62.9831 159.624 63.2661C160.059 63.5492 160.386 63.941 160.625 64.4635C160.821 64.899 160.93 65.3997 160.952 65.944V66.4665C160.93 67.0107 160.821 67.5115 160.625 67.9469C160.386 68.4694 160.059 68.8613 159.624 69.1443H159.646Z" fill="white"/>
<path d="M178.325 67.0325C178.325 65.5086 178.064 64.2241 177.52 63.1573C176.975 62.0905 176.257 61.285 175.364 60.7407C174.472 60.1965 173.514 59.9135 172.469 59.9135C171.25 59.9135 170.183 60.1747 169.247 60.719C168.311 61.2632 167.57 61.9817 167.048 62.9396C166.504 63.8757 166.242 64.9643 166.242 66.2052C166.242 67.4462 166.504 68.5347 167.026 69.4709C167.549 70.407 168.267 71.1472 169.181 71.6915C170.096 72.2358 171.141 72.497 172.316 72.497C173.253 72.497 174.102 72.3664 174.842 72.1051C175.582 71.8439 176.213 71.4738 176.758 70.9948C177.302 70.5159 177.737 69.928 178.064 69.2531L175.081 68.0993C174.864 68.5347 174.581 68.883 174.189 69.1443C173.797 69.4055 173.296 69.5579 172.665 69.5579C172.099 69.5579 171.554 69.4273 171.075 69.1878C170.596 68.9484 170.205 68.5783 169.922 68.0993C169.747 67.7945 169.639 67.4462 169.573 67.0543H178.347L178.325 67.0325ZM169.726 64.5724C169.726 64.5724 169.769 64.3547 169.813 64.2676C170.03 63.7451 170.357 63.3532 170.792 63.1138C171.228 62.8743 171.75 62.7219 172.382 62.7219C172.948 62.7219 173.427 62.8525 173.84 63.1355C174.254 63.4186 174.581 63.8757 174.82 64.5071C174.82 64.5071 174.82 64.5506 174.82 64.5724H169.747H169.726Z" fill="white"/>
<path d="M188.536 61.8293C188.231 61.3721 187.904 60.9802 187.491 60.6754C186.794 60.1747 185.945 59.9134 184.943 59.9134C183.833 59.9134 182.875 60.1747 182.07 60.6754C181.264 61.1979 180.633 61.9163 180.176 62.8525C179.718 63.7886 179.501 64.899 179.501 66.2052C179.501 67.5115 179.718 68.6 180.176 69.5361C180.633 70.4723 181.242 71.2125 182.07 71.7132C182.875 72.2357 183.833 72.4752 184.943 72.4752C185.945 72.4752 186.794 72.214 187.491 71.7132C187.926 71.3867 188.274 70.973 188.579 70.4941L188.71 72.1922H191.714V55.4069H188.557V61.8293H188.536ZM187.208 69.1443C186.794 69.4273 186.293 69.5797 185.749 69.5797C185.183 69.5797 184.66 69.4273 184.225 69.1443C183.79 68.8613 183.441 68.4476 183.18 67.9469C182.919 67.4461 182.788 66.8583 182.788 66.2052C182.788 65.5521 182.919 64.9643 183.18 64.4635C183.441 63.941 183.79 63.5492 184.203 63.2661C184.617 62.9831 185.139 62.8525 185.705 62.8525C186.271 62.8525 186.75 62.9831 187.186 63.2661C187.621 63.5492 187.948 63.941 188.187 64.4635C188.383 64.899 188.492 65.3997 188.514 65.944V66.4665C188.492 67.0107 188.383 67.5115 188.187 67.9469C187.948 68.4694 187.621 68.8613 187.186 69.1443H187.208Z" fill="white"/>
<path d="M209.784 60.6754C208.978 60.1747 208.021 59.9134 206.91 59.9134C205.909 59.9134 205.06 60.1747 204.363 60.6754C203.949 60.9802 203.601 61.4156 203.296 61.8728V55.4069H200.14V72.1922H203.144L203.275 70.4505C203.579 70.9513 203.928 71.3867 204.385 71.7132C205.082 72.2357 205.931 72.4752 206.932 72.4752C208.042 72.4752 209 72.214 209.806 71.7132C210.611 71.1907 211.243 70.4723 211.678 69.5361C212.135 68.6 212.353 67.4897 212.353 66.2052C212.353 64.9207 212.135 63.7886 211.678 62.8525C211.221 61.9163 210.611 61.1979 209.806 60.6754H209.784ZM208.674 67.9469C208.412 68.4694 208.064 68.8613 207.629 69.1443C207.193 69.4273 206.671 69.5797 206.105 69.5797C205.56 69.5797 205.082 69.4273 204.646 69.1443C204.211 68.8613 203.884 68.4476 203.645 67.9469C203.405 67.4461 203.275 66.8583 203.275 66.2052C203.275 65.5521 203.383 64.9643 203.645 64.4635C203.906 63.9628 204.211 63.5709 204.646 63.2661C205.082 62.9831 205.56 62.8307 206.105 62.8307C206.671 62.8307 207.193 62.9613 207.629 63.2444C208.064 63.5274 208.412 63.9193 208.652 64.4418C208.891 64.9425 209.022 65.5303 209.022 66.1834C209.022 66.8366 208.891 67.4244 208.63 67.9251L208.674 67.9469Z" fill="white"/>
<path d="M219.516 68.4912L216.098 60.1965H212.614L218.035 72.0616L217.513 73.2808C217.36 73.6291 217.143 73.9121 216.881 74.0863C216.62 74.2604 216.337 74.3693 215.989 74.3693C215.815 74.3693 215.619 74.3258 215.379 74.2387C215.14 74.1516 214.9 74.0427 214.617 73.8903L213.442 76.4593C213.833 76.677 214.291 76.873 214.813 77.0471C215.336 77.2213 215.815 77.3084 216.25 77.3084C217.121 77.3084 217.817 77.1342 218.34 76.8076C218.862 76.4811 219.32 76.0021 219.69 75.3708C220.06 74.7612 220.408 74.0427 220.735 73.259L226.177 60.24H222.694L219.45 68.5347L219.516 68.4912Z" fill="white"/>
<path d="M242.832 63.4403C242.832 63.4403 242.767 63.4403 242.723 63.4186C243.464 63.0485 244.073 62.5913 244.487 62.0035C244.944 61.3503 245.183 60.5666 245.183 59.6957C245.183 58.8249 244.944 58.0194 244.487 57.3227C244.03 56.626 243.355 56.1035 242.484 55.7117C241.613 55.3198 240.59 55.1456 239.371 55.1456C238.151 55.1456 237.15 55.3416 236.279 55.7117C235.408 56.1035 234.755 56.626 234.298 57.3227C233.841 58.0194 233.623 58.8031 233.623 59.6957C233.623 60.5883 233.841 61.3503 234.298 62.0035C234.712 62.5913 235.299 63.0702 236.04 63.4186C236.018 63.4186 235.974 63.4186 235.931 63.4403C234.995 63.8757 234.276 64.4636 233.776 65.2038C233.297 65.9657 233.035 66.8366 233.035 67.8163C233.035 68.7524 233.275 69.5579 233.776 70.2546C234.254 70.9513 234.973 71.4955 235.931 71.8874C236.889 72.2793 238.021 72.4752 239.371 72.4752C240.72 72.4752 241.874 72.2793 242.832 71.8874C243.768 71.4955 244.487 70.9513 244.987 70.2546C245.488 69.5579 245.728 68.7524 245.728 67.8163C245.728 66.8148 245.488 65.944 244.987 65.2038C244.487 64.4636 243.768 63.854 242.832 63.4403ZM237.542 58.3895C238.021 57.9541 238.63 57.7581 239.392 57.7581C240.154 57.7581 240.786 57.9758 241.286 58.3895C241.765 58.8031 242.027 59.3692 242.027 60.0441C242.027 60.6754 241.787 61.2197 241.286 61.6333C240.808 62.047 240.176 62.2647 239.392 62.2647C238.609 62.2647 238.021 62.047 237.542 61.6333C237.063 61.2197 236.823 60.6972 236.823 60.0441C236.823 59.3474 237.063 58.8031 237.542 58.3895ZM241.548 69.079C240.982 69.5144 240.263 69.7321 239.392 69.7321C238.826 69.7321 238.304 69.6233 237.868 69.4273C237.433 69.2314 237.085 68.9484 236.823 68.6C236.562 68.2517 236.432 67.838 236.432 67.3809C236.432 66.8801 236.562 66.4447 236.823 66.0528C237.085 65.661 237.433 65.3779 237.868 65.1602C238.304 64.9643 238.805 64.8554 239.392 64.8554C240.263 64.8554 240.982 65.0949 241.548 65.5521C242.114 66.0093 242.397 66.6189 242.397 67.3809C242.397 68.0775 242.114 68.6436 241.548 69.079Z" fill="white"/>
<path d="M252.564 68.0775C252.977 67.6639 253.413 67.2938 253.892 66.989L256.178 65.3344C257.179 64.6378 257.941 63.8758 258.507 63.0702C259.073 62.2647 259.356 61.3504 259.356 60.3054C259.356 59.2603 259.117 58.3895 258.616 57.6058C258.137 56.822 257.44 56.2124 256.548 55.777C255.655 55.3198 254.588 55.1021 253.326 55.1021C252.237 55.1021 251.258 55.3198 250.408 55.7335C249.559 56.1471 248.863 56.7132 248.34 57.3881C247.818 58.063 247.469 58.8249 247.317 59.6087L250.691 60.1747C250.779 59.8046 250.953 59.4563 251.192 59.1515C251.432 58.8467 251.736 58.5855 252.107 58.3895C252.477 58.1936 252.912 58.1065 253.391 58.1065C253.957 58.1065 254.414 58.1936 254.806 58.3895C255.198 58.5855 255.481 58.8467 255.677 59.1733C255.873 59.4998 255.982 59.8917 255.982 60.3054C255.982 60.6319 255.873 60.9802 255.677 61.3504C255.481 61.7205 255.22 62.047 254.915 62.3518C254.61 62.6566 254.262 62.9179 253.914 63.1791L251.366 65.0079C250.67 65.4868 250.082 66.0093 249.559 66.5754C249.037 67.1414 248.645 67.6857 248.362 68.2517C248.079 68.8178 247.927 69.3185 247.927 69.7974V72.214H259.53V69.3403H251.671C251.911 68.8831 252.172 68.4694 252.52 68.0993L252.564 68.0775Z" fill="white"/>
<path d="M271.439 65.1384H277.753V62.2211H271.439V58.3895H278.776V55.4069H268.152V72.1922H278.863V69.1878H271.439V65.1384Z" fill="white"/>
<path d="M296.367 55.4069H292.47L288.595 60.9802L284.719 55.4069H280.801L286.766 63.5927L280.692 72.1922H284.654L288.595 66.2705L292.535 72.1922H296.497L290.423 63.5709L296.367 55.4069Z" fill="white"/>
<path d="M309.407 68.0122C308.972 68.4694 308.471 68.8395 307.905 69.1008C307.339 69.362 306.708 69.4927 306.011 69.4927C305.01 69.4927 304.139 69.2532 303.377 68.7524C302.615 68.2517 302.005 67.5986 301.57 66.7495C301.135 65.9005 300.917 64.899 300.917 63.7887C300.917 62.6784 301.135 61.6987 301.548 60.8496C301.962 60.0006 302.571 59.3257 303.312 58.8467C304.074 58.3677 304.944 58.1065 305.924 58.1065C306.599 58.1065 307.209 58.2371 307.796 58.4766C308.362 58.7161 308.885 59.0644 309.342 59.4998C309.799 59.9352 310.148 60.4577 310.431 61.0456L313.479 59.9135C313.087 58.9773 312.499 58.1283 311.759 57.4098C311.019 56.6914 310.148 56.1253 309.168 55.7117C308.167 55.2981 307.1 55.1021 305.946 55.1021C304.313 55.1021 302.876 55.4722 301.613 56.2124C300.351 56.9526 299.371 57.9759 298.653 59.2821C297.934 60.5884 297.564 62.0906 297.564 63.7669C297.564 65.4433 297.934 66.9672 298.653 68.2735C299.371 69.5797 300.373 70.603 301.635 71.3432C302.898 72.0834 304.357 72.4535 305.968 72.4535C307.143 72.4535 308.21 72.2358 309.212 71.8221C310.213 71.4085 311.062 70.8207 311.824 70.0805C312.586 69.3403 313.13 68.4694 313.544 67.4897L310.496 66.3794C310.235 66.989 309.865 67.5333 309.429 67.9905L309.407 68.0122Z" fill="white"/>
<path d="M326.998 62.0905H319.226V55.4068L315.939 55.3851V72.1922L319.226 72.2139V65.1166H326.998V72.1922H330.286V55.4068H326.998V62.0905Z" fill="white"/>
<path d="M338.907 55.4069L332.289 72.1922H335.772L337.187 68.4911H344.154L345.569 72.1922H349.052L342.434 55.4069H338.929H338.907ZM338.297 65.5956L340.67 59.4127L343.043 65.5956H338.319H338.297Z" fill="white"/>
<path d="M362.681 66.7059L354.473 55.4069H351.055V72.1922L354.321 72.214V60.6754L362.681 72.1922H365.946V55.4069H362.681V66.7059Z" fill="white"/>
<path d="M377.92 65.7698H381.817C381.774 66.4447 381.621 67.0543 381.273 67.5986C380.881 68.2082 380.359 68.6871 379.706 69.0137C379.052 69.3403 378.29 69.5144 377.441 69.5144C376.353 69.5144 375.395 69.2749 374.568 68.7742C373.74 68.2735 373.087 67.6204 372.63 66.7495C372.173 65.8787 371.955 64.899 371.955 63.7887C371.955 62.6784 372.195 61.6987 372.652 60.8496C373.109 60.0006 373.762 59.3257 374.568 58.8467C375.395 58.3677 376.309 58.1065 377.376 58.1065C377.899 58.1065 378.421 58.1936 378.965 58.3895C379.488 58.5854 379.967 58.8467 380.424 59.1733C380.881 59.4998 381.23 59.8917 381.491 60.3271L384.169 58.6508C383.711 57.9541 383.167 57.3445 382.492 56.822C381.817 56.2995 381.055 55.8641 380.206 55.5593C379.357 55.2545 378.399 55.1021 377.376 55.1021C375.656 55.1021 374.154 55.4722 372.826 56.2124C371.498 56.9526 370.475 57.9759 369.713 59.2821C368.951 60.5884 368.581 62.0906 368.581 63.7669C368.581 65.4433 368.951 66.9672 369.713 68.2735C370.453 69.5797 371.498 70.603 372.826 71.3432C374.154 72.0834 375.656 72.4535 377.376 72.4535C378.857 72.4535 380.185 72.1705 381.317 71.5827C382.47 70.9948 383.363 70.1458 383.994 69.0355C384.604 67.9687 384.909 66.706 384.931 65.2256H384.952V63.1791H377.899V65.7481L377.92 65.7698Z" fill="white"/>
<path d="M390.678 69.1878V65.1384H397.013V62.2211H390.678V58.3895H398.037V55.4069H387.412V72.1922H398.124V69.1878H390.678Z" fill="white"/>
<path d="M102.933 10.7984C99.4057 10.7984 96.5538 13.6503 96.5538 17.1772V44.6085H103.15V30.3921H115.494V44.5867H122.113V16.8071L126.924 10.7984H102.933ZM115.516 24.514H103.172V16.8071H115.516V24.514ZM130.843 10.7766H151.22V16.8289H141.598V44.5867H134.979V16.8071H126.053L130.843 10.7548V10.7766ZM161.017 38.578H175.996V44.6303H161.017H154.399V10.8201H159.428H175.8V16.8507H161.017V24.5358H173.753V30.4357H160.996V38.5998L161.017 38.578ZM202.6 22.9465L194.348 36.5315L186.097 22.9465V44.6303H179.479V10.7984H186.119L194.37 24.7317L202.621 10.7984H209.262V44.6085H202.643V22.9247L202.6 22.9465Z" fill="white"/>
<path d="M264.472 10.7984L251.192 44.4562H258.159L260.989 37.0541H274.944L277.774 44.4562H284.741L271.461 10.7984H264.429H264.472ZM263.231 31.2412L267.978 18.8318L272.724 31.2412H263.231Z" fill="white"/>
<path d="M241.613 25.1671L237.194 24.0568C235.953 23.7303 234.951 23.2731 234.233 22.6635C233.514 22.0539 233.144 21.2266 233.144 20.1598C233.144 18.8101 233.601 17.7651 234.516 17.0248C235.43 16.2846 236.693 15.9145 238.282 15.9145C239.871 15.9145 241.156 16.3064 242.179 17.0684C243.202 17.8304 243.921 18.7665 244.291 19.8551L250.691 17.8739C250.104 16.3064 249.276 14.9348 248.188 13.781C247.099 12.6271 245.749 11.7345 244.117 11.1032C242.506 10.4718 240.612 10.167 238.456 10.167C234.603 10.167 231.642 11.0596 229.53 12.8448C227.44 14.63 226.373 17.1119 226.373 20.2687C226.373 21.9451 226.722 23.4037 227.44 24.6446C228.137 25.8856 229.117 26.9524 230.379 27.8014C231.62 28.6505 233.079 29.2818 234.712 29.6955L239.088 30.8493C240.568 31.2412 241.722 31.7855 242.571 32.5039C243.42 33.2224 243.855 34.115 243.855 35.1817C243.855 36.4009 243.311 37.4024 242.244 38.1644C241.178 38.9263 239.784 39.2964 238.086 39.2747C236.475 39.2529 235.147 38.8392 234.102 38.0555C233.035 37.2717 232.317 36.3356 231.881 35.2471L225.437 37.1629C225.655 38.1861 226.156 39.1658 226.896 40.102C227.658 41.0381 228.594 41.8654 229.748 42.6274C230.902 43.3894 232.208 43.9772 233.688 44.3908C235.169 44.8045 236.758 45.0222 238.456 45.0222C241.047 45.0222 243.268 44.6085 245.096 43.7812C246.925 42.9539 248.318 41.7783 249.276 40.2979C250.234 38.8175 250.713 37.0758 250.713 35.0729C250.713 32.8305 249.908 30.784 248.318 28.9553C246.707 27.1265 244.465 25.8638 241.591 25.1454L241.613 25.1671Z" fill="white"/>
<path d="M297.717 36.9234L287.789 10.7984H280.713L294.146 44.4562H301.309L314.676 10.7984H307.6L297.717 36.9234Z" fill="white"/>
<path d="M385.562 26.4298V31.5678H393.421C393.334 32.9393 392.986 34.1585 392.311 35.2253C391.549 36.4444 390.482 37.3806 389.154 38.0555C387.826 38.7304 386.302 39.0569 384.604 39.0569C382.427 39.0569 380.489 38.578 378.835 37.5983C377.158 36.6186 375.874 35.2688 374.96 33.5271C374.045 31.7855 373.588 29.8261 373.588 27.6055C373.588 25.3848 374.045 23.3819 374.981 21.6838C375.917 19.9857 377.202 18.6359 378.835 17.6779C380.468 16.6983 382.34 16.2193 384.452 16.2193C385.518 16.2193 386.563 16.4152 387.63 16.8071C388.697 17.199 389.655 17.7215 390.547 18.3964C391.418 19.0713 392.137 19.8333 392.681 20.7041L398.058 17.3296C397.166 15.958 396.055 14.7171 394.706 13.6503C393.378 12.5836 391.854 11.7345 390.112 11.1249C388.37 10.5153 386.498 10.2105 384.43 10.2105C380.99 10.2105 377.964 10.9507 375.308 12.4529C372.674 13.9334 370.584 16.0016 369.081 18.6141C367.579 21.2266 366.817 24.231 366.817 27.6272C366.817 31.0235 367.579 34.0279 369.081 36.6404C370.584 39.2529 372.674 41.2993 375.308 42.8015C377.964 44.2819 380.99 45.0439 384.43 45.0439C387.412 45.0439 390.047 44.4561 392.333 43.2805C394.619 42.1048 396.426 40.4067 397.71 38.1643C398.929 36.0308 399.561 33.4836 399.626 30.5228H399.648V26.4298H385.518H385.562Z" fill="white"/>
<path d="M355.932 33.4836L339.495 10.7984H332.615V44.4562L339.212 44.4997V21.379L355.932 44.4562H362.485V10.7984H355.932V33.4836Z" fill="white"/>
<path d="M325.322 10.7984H318.725V44.4562H325.322V10.7984Z" fill="white"/>
</g>
<defs>
<linearGradient id="paint0_linear_381_148" x1="0" y1="41.6041" x2="83.23" y2="41.6041" gradientUnits="userSpaceOnUse">
<stop stop-color="#00CEFF"/>
<stop offset="1" stop-color="#0088FF"/>
</linearGradient>
<linearGradient id="paint1_linear_381_148" x1="44.0207" y1="38.9916" x2="57.7146" y2="38.9916" gradientUnits="userSpaceOnUse">
<stop offset="0.13" stop-color="#0078FF"/>
<stop offset="0.64" stop-color="#006AFF"/>
</linearGradient>
<linearGradient id="paint2_linear_381_148" x1="48.832" y1="68.5347" x2="58.7813" y2="41.1687" gradientUnits="userSpaceOnUse">
<stop stop-color="#00CEFF"/>
<stop offset="1" stop-color="#0069FF"/>
</linearGradient>
<linearGradient id="paint3_linear_381_148" x1="11.9304" y1="41.7783" x2="71.0601" y2="41.7783" gradientUnits="userSpaceOnUse">
<stop stop-color="#00B8FF"/>
<stop offset="1" stop-color="#002AFF"/>
</linearGradient>
<linearGradient id="paint4_linear_381_148" x1="11.0732" y1="34.9582" x2="51.3711" y2="34.9442" gradientUnits="userSpaceOnUse">
<stop stop-color="#00CEFF"/>
<stop offset="1" stop-color="#0069FF"/>
</linearGradient>
<clipPath id="clip0_381_148">
<rect width="399.713" height="83.23" fill="white"/>
</clipPath>
</defs>
</svg>
